<svg xmlns="http://www.w3.org/2000/svg" viewBox="0 0 582.57 152.43"><defs><style>.cls-1,.cls-3{fill:#fff;}.cls-1{stroke:#fff;}.cls-1,.cls-2{stroke-miterlimit:10;}.cls-2{stroke:#000;}.cls-4{font-size:75.39px;font-family:Klik-Light, Klik;font-weight:300;}.cls-5{letter-spacing:-0.01em;}</style></defs><g id="Lager_2" data-name="Lager 2"><g id="Lager_1-2" data-name="Lager 1"><circle cx="76.21" cy="76.21" r="75.88"/><path d="M76.21,152.43a76.22,76.22,0,1,1,76.22-76.22A76.3,76.3,0,0,1,76.21,152.43ZM76.21.67a75.55,75.55,0,1,0,75.55,75.54A75.63,75.63,0,0,0,76.21.67Z"/><path class="cls-1" d="M111.28,53.86H96.94L92.07,43.55H59.79L55.34,53.86H41.15a10,10,0,0,0-10,10v35a10,10,0,0,0,10,10h70.13a10,10,0,0,0,10-10v-35A10,10,0,0,0,111.28,53.86Z"/><circle class="cls-2" cx="108.53" cy="62.43" r="2.45"/><circle class="cls-2" cx="76.21" cy="80.23" r="18.81"/><path class="cls-2" d="M76.21,100.48A20.25,20.25,0,1,1,96.46,80.23,20.28,20.28,0,0,1,76.21,100.48Zm0-37.63A17.38,17.38,0,1,0,93.59,80.23,17.4,17.4,0,0,0,76.21,62.85Z"/><rect class="cls-3" x="44.25" y="49.64" width="7.38" height="2.89"/><text class="cls-4" transform="translate(166.96 98.62)"><tspan class="cls-5">m</tspan><tspan x="64.76" y="0">yimages.se</tspan></text></g></g></svg>