<svg xmlns="http://www.w3.org/2000/svg" viewBox="0 0 575.79 105.95"><defs><style>.cls-1,.cls-2{stroke:#000;stroke-miterlimit:10;}.cls-2,.cls-3{fill:#fff;}.cls-4{font-size:75.39px;font-family:Klik-Light, Klik;font-weight:300;}.cls-5{letter-spacing:-0.01em;}</style></defs><g id="Lager_2" data-name="Lager 2"><g id="Lager_1-2" data-name="Lager 1"><path class="cls-1" d="M129.24,17.07h-23L98.39.5H46.53L39.4,17.07H16.59A16.1,16.1,0,0,0,.5,33.16V89.35a16.1,16.1,0,0,0,16.09,16.1H129.24a16.1,16.1,0,0,0,16.1-16.1V33.16A16.1,16.1,0,0,0,129.24,17.07Z"/><circle class="cls-2" cx="124.83" cy="30.83" r="3.94"/><circle cx="72.92" cy="59.42" r="30.22"/><path class="cls-3" d="M72.92,92a32.53,32.53,0,1,1,32.53-32.53A32.57,32.57,0,0,1,72.92,92Zm0-60.44a27.91,27.91,0,1,0,27.91,27.91A27.94,27.94,0,0,0,72.92,31.51Z"/><rect x="21.57" y="10.28" width="11.86" height="4.64"/><text class="cls-4" transform="translate(160.18 87.64)"><tspan class="cls-5">m</tspan><tspan x="64.76" y="0">yimages.se</tspan></text></g></g></svg>