<svg xmlns="http://www.w3.org/2000/svg" viewBox="0 0 575.8 105.95"><defs><style>.cls-1,.cls-3,.cls-5,.cls-6{fill:#fff;}.cls-1{stroke:#fff;}.cls-1,.cls-2{stroke-miterlimit:10;}.cls-2{stroke:#000;}.cls-4,.cls-5,.cls-6{isolation:isolate;}.cls-5,.cls-6{font-size:75.39px;font-family:Klik-Light, Klik;font-weight:300;}.cls-5{letter-spacing:-0.01em;}</style></defs><g id="Lager_2" data-name="Lager 2"><g id="Lager_1-2" data-name="Lager 1"><path class="cls-1" d="M129.24,17.07H106.17L98.35.5H46.53L39.39,17.07H16.59A16.09,16.09,0,0,0,.5,33.16h0V89.36a16.09,16.09,0,0,0,16.09,16.09H129.24a16.1,16.1,0,0,0,16.1-16.09V33.17a16.1,16.1,0,0,0-16.1-16.1Z"/><circle class="cls-2" cx="124.82" cy="30.83" r="3.94"/><circle cx="72.92" cy="59.42" r="30.22"/><path d="M72.92,92a32.53,32.53,0,1,1,32.52-32.54h0A32.55,32.55,0,0,1,72.92,92Zm0-60.44a27.92,27.92,0,1,0,27.91,27.93v0A27.94,27.94,0,0,0,72.92,31.51Z"/><rect class="cls-3" x="21.57" y="10.28" width="11.86" height="4.64"/><g class="cls-4"><text class="cls-5" transform="translate(160.18 87.64)">m</text><text class="cls-6" transform="translate(224.94 87.64)">yimages.se</text></g></g></g></svg>