<svg id="Lager_1" data-name="Lager 1" xmlns="http://www.w3.org/2000/svg" viewBox="0 0 836.19 340.32"><defs><style>.cls-1,.cls-2{stroke:#000;}.cls-1,.cls-2,.cls-4{stroke-miterlimit:10;}.cls-2,.cls-3,.cls-4,.cls-5{fill:#fff;}.cls-4{stroke:#fff;}.cls-5{font-size:75.39px;font-family:Klik-Light, Klik;font-weight:300;}.cls-6{letter-spacing:-0.01em;}</style></defs><path class="cls-1" d="M226.09,65.39h-25l-8.48-18h-56.2l-7.73,18H104A17.44,17.44,0,0,0,86.57,82.83v60.89A17.44,17.44,0,0,0,104,161.16H226.09a17.44,17.44,0,0,0,17.44-17.44V82.83A17.44,17.44,0,0,0,226.09,65.39Z" transform="translate(-56.43 -46.93)"/><circle class="cls-2" cx="164.87" cy="33.37" r="4.27"/><circle cx="108.62" cy="64.35" r="32.75"/><path class="cls-3" d="M165.05,146.53a35.25,35.25,0,1,1,35.25-35.25A35.29,35.29,0,0,1,165.05,146.53Zm0-65.5a30.25,30.25,0,1,0,30.25,30.25A30.28,30.28,0,0,0,165.05,81Z" transform="translate(-56.43 -46.93)"/><rect x="52.97" y="11.1" width="12.85" height="5.03"/><circle cx="104.35" cy="235.97" r="103.89"/><path d="M160.78,387.25A104.35,104.35,0,1,1,265.13,282.9,104.47,104.47,0,0,1,160.78,387.25Zm0-207.79A103.44,103.44,0,1,0,264.22,282.9,103.57,103.57,0,0,0,160.78,179.46Z" transform="translate(-56.43 -46.93)"/><path class="cls-4" d="M208.79,252.3H189.16l-6.67-14.12h-44.2l-6.08,14.12H112.77A13.72,13.72,0,0,0,99.05,266v47.89a13.72,13.72,0,0,0,13.72,13.72h96a13.72,13.72,0,0,0,13.72-13.72V266A13.72,13.72,0,0,0,208.79,252.3Z" transform="translate(-56.43 -46.93)"/><circle class="cls-1" cx="148.6" cy="217.1" r="3.35"/><circle class="cls-1" cx="104.35" cy="241.47" r="25.76"/><path class="cls-1" d="M160.78,316.12a27.73,27.73,0,1,1,27.73-27.72A27.74,27.74,0,0,1,160.78,316.12Zm0-51.52a23.8,23.8,0,1,0,23.79,23.8A23.82,23.82,0,0,0,160.78,264.6Z" transform="translate(-56.43 -46.93)"/><rect class="cls-3" x="60.58" y="199.58" width="10.11" height="3.96"/><path class="cls-4" d="M446.07,267.47H423l-7.82-16.57H363.36l-7.14,16.57h-22.8a16.09,16.09,0,0,0-16.09,16.1v56.19a16.09,16.09,0,0,0,16.09,16.09H446.07a16.1,16.1,0,0,0,16.1-16.09V283.57A16.1,16.1,0,0,0,446.07,267.47Z" transform="translate(-56.43 -46.93)"/><circle class="cls-1" cx="385.22" cy="234.3" r="3.94"/><circle cx="333.32" cy="262.89" r="30.22"/><path d="M389.75,342.35a32.53,32.53,0,1,1,32.52-32.53A32.56,32.56,0,0,1,389.75,342.35Zm0-60.44a27.92,27.92,0,1,0,27.91,27.91A27.95,27.95,0,0,0,389.75,281.91Z" transform="translate(-56.43 -46.93)"/><rect class="cls-3" x="281.97" y="213.75" width="11.86" height="4.64"/><circle class="cls-3" cx="322.61" cy="90.91" r="75.88"/><path class="cls-3" d="M379,214.05a76.22,76.22,0,1,1,76.21-76.21A76.3,76.3,0,0,1,379,214.05Zm0-151.76a75.55,75.55,0,1,0,75.55,75.55A75.63,75.63,0,0,0,379,62.29Z" transform="translate(-56.43 -46.93)"/><rect class="cls-3" x="290.64" y="64.33" width="7.38" height="2.89"/><text class="cls-5" transform="translate(413.35 114.75)"><tspan class="cls-6">m</tspan><tspan x="64.76" y="0">yimages.se</tspan></text><text class="cls-5" transform="translate(420.58 291.11)"><tspan class="cls-6">m</tspan><tspan x="64.76" y="0">yimages.se</tspan></text><path class="cls-1" d="M413.5,115.87H399.41l-4.79-10.14H362.89l-4.36,10.14h-14a9.85,9.85,0,0,0-9.84,9.85V160.1a9.85,9.85,0,0,0,9.84,9.84H413.5a9.85,9.85,0,0,0,9.85-9.84V125.72A9.85,9.85,0,0,0,413.5,115.87Z" transform="translate(-56.43 -46.93)"/><circle class="cls-2" cx="354.37" cy="77.36" r="2.41"/><circle cx="322.61" cy="94.85" r="18.49"/><path class="cls-3" d="M379,161.68a19.9,19.9,0,1,1,19.9-19.9A19.91,19.91,0,0,1,379,161.68Zm0-37a17.08,17.08,0,1,0,17.08,17.08A17.1,17.1,0,0,0,379,124.7Z" transform="translate(-56.43 -46.93)"/><rect x="291.19" y="64.78" width="7.26" height="2.84"/></svg>