<svg xmlns="http://www.w3.org/2000/svg" viewBox="0 0 582.63 152.44"><defs><style>.cls-1,.cls-3,.cls-4,.cls-6{fill:#fff;}.cls-2,.cls-3,.cls-4{isolation:isolate;}.cls-3,.cls-4{font-size:75.39px;font-family:Klik-Light, Klik;font-weight:300;}.cls-3{letter-spacing:-0.01em;}.cls-5,.cls-6{stroke:#000;stroke-miterlimit:10;}</style></defs><g id="Lager_2" data-name="Lager 2"><g id="Lager_1-2" data-name="Lager 1"><circle class="cls-1" cx="76.27" cy="76.23" r="75.88"/><path class="cls-1" d="M76.23,152.44a76.22,76.22,0,1,1,76.21-76.23v0A76.3,76.3,0,0,1,76.23,152.44ZM76.23.68a75.55,75.55,0,1,0,75.55,75.55h0A75.62,75.62,0,0,0,76.23.68Z"/><rect class="cls-1" x="44.3" y="49.65" width="7.38" height="2.89"/><g class="cls-2"><text class="cls-3" transform="translate(167.01 100.07)">m</text><text class="cls-4" transform="translate(231.77 100.07)">yimages.se</text></g><path class="cls-5" d="M110.73,54.26H96.64L91.85,44.12H60.12L55.76,54.26h-14a9.85,9.85,0,0,0-9.84,9.85V98.49a9.86,9.86,0,0,0,9.84,9.84h69a9.85,9.85,0,0,0,9.85-9.84V64.11a9.85,9.85,0,0,0-9.85-9.85Z"/><circle class="cls-6" cx="108.03" cy="62.68" r="2.41"/><circle cx="76.27" cy="80.17" r="18.49"/><path class="cls-1" d="M76.23,100.07a19.9,19.9,0,1,1,19.9-19.9h0A19.91,19.91,0,0,1,76.23,100.07Zm0-37A17.08,17.08,0,1,0,93.31,80.15h0A17.1,17.1,0,0,0,76.23,63.09Z"/><rect x="44.85" y="50.1" width="7.26" height="2.84"/></g></g></svg>